HIERARCHY
ROOT Elbow
{
	OFFSET	0.00	0.00	0.00
	CHANNELS 6 Xposition Yposition Zposition Zrotation Xrotation Yrotation
	JOINT L_Wrist
	{
		OFFSET	 0.208349	 0.000000	 0.000000
		CHANNELS 3 Zrotation Xrotation Yrotation
		JOINT L_index_Proximal
		{
			OFFSET	 0.093499	 0.010637	-0.002084
			CHANNELS 3 Zrotation Xrotation Yrotation
			JOINT L_index_b
			{
				OFFSET	 0.033152	 0.000000	 0.000000
				CHANNELS 3 Zrotation Xrotation Yrotation
				JOINT L_index_c
				{
					OFFSET	 0.018651	 0.000000	 0.000000
					CHANNELS 3 Zrotation Xrotation Yrotation
					End Site
					{
						OFFSET	 0.018651	 0.000000	 0.000000
					}
				}
			}
		}
		JOINT L_middle_Proximal
		{
			OFFSET	 0.090632	-0.006115	-0.003750
			CHANNELS 3 Zrotation Xrotation Yrotation
			JOINT L_middle_b
			{
				OFFSET	 0.037194	 0.000000	 0.000000
				CHANNELS 3 Zrotation Xrotation Yrotation
				JOINT L_middle_c
				{
					OFFSET	 0.021943	 0.000000	 0.000000
					CHANNELS 3 Zrotation Xrotation Yrotation
					End Site
					{
						OFFSET	 0.021943	 0.000000	 0.000000
					}
				}
			}
		}
		JOINT L_pinky_Proximal
		{
			OFFSET	 0.074015	-0.035449	-0.000417
			CHANNELS 3 Zrotation Xrotation Yrotation
			JOINT L_pinky_b
			{
				OFFSET	 0.027285	 0.000000	 0.000000
				CHANNELS 3 Zrotation Xrotation Yrotation
				JOINT L_pinky_c
				{
					OFFSET	 0.015093	 0.000000	 0.000000
					CHANNELS 3 Zrotation Xrotation Yrotation
					End Site
					{
						OFFSET	 0.015093	 0.000000	 0.000000
					}
				}
			}
		}
		JOINT L_ring_Proximal
		{
			OFFSET	 0.082801	-0.021859	-0.003750
			CHANNELS 3 Zrotation Xrotation Yrotation
			JOINT L_ring_b
			{
				OFFSET	 0.034478	 0.000000	 0.000000
				CHANNELS 3 Zrotation Xrotation Yrotation
				JOINT L_ring_c
				{
					OFFSET	 0.021377	 0.000000	 0.000000
					CHANNELS 3 Zrotation Xrotation Yrotation
					End Site
					{
						OFFSET	 0.021377	 0.000000	 0.000000
					}
				}
			}
		}
		JOINT L_thumb_Proximal
		{
			OFFSET	 0.030306	 0.018528	 0.004584
			CHANNELS 3 Zrotation Xrotation Yrotation
			JOINT L_thumb_a
			{
				OFFSET	 0.038520	 0.000000	 0.000000
				CHANNELS 3 Zrotation Xrotation Yrotation
				JOINT L_thumb_b
				{
					OFFSET	 0.026310	 0.000000	 0.000000
					CHANNELS 3 Zrotation Xrotation Yrotation
					End Site
					{
						OFFSET	 0.026310	 0.000000	 0.000000
					}
				}
			}
		}
	}
}
MOTION
Frames:    12
Frame Time: 0.01666667
-0.159565	-0.285940	 0.710216	 37.766780	 47.412400	-153.554900	 17.609590	 3.822801	 22.268850	 2.289694	-1.336693	-45.455830	-1.789928	 0.788706	-47.557500	-3.825910	 0.913650	-26.852860	-7.624628	-9.560556	-46.938760	 1.692960	-0.781094	-49.532310	-0.310062	 0.099678	-35.644090	-30.172290	-17.881510	-61.325740	-2.739017	 1.835174	-67.639360	 1.806176	-0.892607	-52.593670	-20.512040	-9.999735	-72.062730	-1.795940	 1.565568	-82.157500	 1.513989	-0.576335	-41.679140	 64.370720	 42.829190	-66.988670	 3.148083	-0.248262	-9.016048	-1.587495	 0.264543	-18.921070
-0.159754	-0.285729	 0.710107	 37.752120	 47.420300	-153.546800	 17.589430	 3.818229	 22.240700	 2.298397	-1.340462	-45.432580	-1.769960	 0.777548	-47.429430	-3.819003	 0.909345	-26.777540	-7.635875	-9.554511	-46.928280	 1.692055	-0.779444	-49.464280	-0.328446	 0.105370	-35.575020	-30.180030	-17.877290	-61.304790	-2.738988	 1.834064	-67.608290	 1.779244	-0.879598	-52.609880	-20.512990	-9.999809	-72.029310	-1.803244	 1.571874	-82.155540	 1.494157	-0.568595	-41.666210	 64.268780	 42.888450	-67.000220	 3.172781	-0.249535	-8.991669	-1.511470	 0.249689	-18.760600
-0.159762	-0.285673	 0.710088	 37.744920	 47.410030	-153.541900	 17.584720	 3.816280	 22.228730	 2.291959	-1.337662	-45.449270	-1.756811	 0.770821	-47.377340	-3.837331	 0.913873	-26.782060	-7.645015	-9.549471	-46.915770	 1.684762	-0.775410	-49.425790	-0.328184	 0.105183	-35.542110	-30.177730	-17.878750	-61.305590	-2.732832	 1.829730	-67.601550	 1.777995	-0.879014	-52.611160	-20.498690	-10.012290	-72.008960	-1.795823	 1.565772	-82.168860	 1.494663	-0.568770	-41.665430	 64.188260	 42.933600	-67.012370	 3.215589	-0.252156	-8.965085	-1.458943	 0.239354	-18.633070
-0.159742	-0.285685	 0.710177	 37.830400	 47.247290	-153.606700	 17.554560	 3.822322	 22.265910	 2.322597	-1.353339	-45.451670	-1.756985	 0.769202	-47.284330	-3.885436	 0.925732	-26.793290	-7.579244	-9.584199	-46.941330	 1.695613	-0.778879	-49.340990	-0.279450	 0.089560	-35.541700	-30.124020	-17.910650	-61.376660	-2.678900	 1.792818	-67.578290	 1.830738	-0.904028	-52.557580	-20.439560	-10.061900	-72.004370	-1.756930	 1.530634	-82.123660	 1.522887	-0.579304	-41.651720	 64.122470	 42.982400	-66.999200	 3.295951	-0.254850	-8.840564	-1.450323	 0.236131	-18.494120
-0.159758	-0.285734	 0.710247	 37.853810	 47.185340	-153.623900	 17.535990	 3.826463	 22.291370	 2.324218	-1.355326	-45.491120	-1.752047	 0.766323	-47.245180	-3.896337	 0.928344	-26.793650	-7.577973	-9.584930	-46.944570	 1.650932	-0.757410	-49.286400	-0.312128	 0.099984	-35.523650	-30.106140	-17.922180	-61.374500	-2.685676	 1.797035	-67.569100	 1.839378	-0.908135	-52.549380	-20.421280	-10.077580	-71.988880	-1.761224	 1.533948	-82.107560	 1.523924	-0.579870	-41.662460	 64.116040	 42.992250	-66.988010	 3.326257	-0.256586	-8.819486	-1.439191	 0.234001	-18.469230
-0.159722	-0.285754	 0.710408	 37.886130	 47.101410	-153.658800	 17.526430	 3.832057	 22.325890	 2.336044	-1.363213	-45.554680	-1.697851	 0.740485	-47.124860	-3.901998	 0.929101	-26.777160	-7.565774	-9.591602	-46.959350	 1.675825	-0.768252	-49.254050	-0.285841	 0.091570	-35.526630	-30.075860	-17.942360	-61.350490	-2.688310	 1.798745	-67.567530	 1.824606	-0.900183	-52.516660	-20.392060	-10.102900	-71.951650	-1.744020	 1.518749	-82.099430	 1.509279	-0.573918	-41.637370	 64.070060	 43.007900	-67.014500	 3.373967	-0.258826	-8.770593	-1.432182	 0.231203	-18.340220
-0.159701	-0.285761	 0.710453	 37.879860	 47.088430	-153.661900	 17.531650	 3.833866	 22.337000	 2.336796	-1.364680	-45.591300	-1.684032	 0.734015	-47.098930	-3.897791	 0.927795	-26.768630	-7.565458	-9.591967	-46.968440	 1.684583	-0.772271	-49.254060	-0.274788	 0.088049	-35.536340	-30.072590	-17.944440	-61.351040	-2.688504	 1.798866	-67.567320	 1.821176	-0.898565	-52.520310	-20.382550	-10.111170	-71.938420	-1.731458	 1.508169	-82.112890	 1.511724	-0.574728	-41.630010	 64.046670	 43.015940	-67.027740	 3.391389	-0.259917	-8.762776	-1.424659	 0.229386	-18.292710
-0.159637	-0.285875	 0.710587	 37.878470	 47.049800	-153.677500	 17.548460	 3.837143	 22.357180	 2.342092	-1.369771	-45.672250	-1.669416	 0.726552	-47.035930	-3.887872	 0.923823	-26.723750	-7.573527	-9.588137	-46.984820	 1.694864	-0.776709	-49.239120	-0.275175	 0.088137	-35.520890	-30.084340	-17.936610	-61.360450	-2.698261	 1.805578	-67.572790	 1.804197	-0.889983	-52.510190	-20.386530	-10.107770	-71.941330	-1.735038	 1.511061	-82.104580	 1.497836	-0.569438	-41.628920	 64.039450	 43.020840	-67.027150	 3.402226	-0.260619	-8.758446	-1.412801	 0.227301	-18.279520
-0.159702	-0.285912	 0.710674	 37.873000	 47.032510	-153.677300	 17.558280	 3.838287	 22.364190	 2.343267	-1.370828	-45.687690	-1.670532	 0.727010	-47.034530	-3.895007	 0.925754	-26.730320	-7.581321	-9.584246	-46.992530	 1.686685	-0.773028	-49.242370	-0.292133	 0.093616	-35.536800	-30.080030	-17.939720	-61.350270	-2.703466	 1.809536	-67.586300	 1.802521	-0.888869	-52.495370	-20.389510	-10.105200	-71.944770	-1.735838	 1.511956	-82.112210	 1.495330	-0.568407	-41.624000	 64.035010	 43.019940	-67.034390	 3.402949	-0.260595	-8.755571	-1.417422	 0.228128	-18.285550
-0.159680	-0.286167	 0.710807	 37.842440	 46.992420	-153.654100	 17.574970	 3.839956	 22.374500	 2.366831	-1.384834	-45.752780	-1.643202	 0.713203	-46.922360	-3.884158	 0.921810	-26.692240	-7.594396	-9.577579	-46.998920	 1.667300	-0.763963	-49.231870	-0.319526	 0.102338	-35.517700	-30.073250	-17.944590	-61.334350	-2.700478	 1.807189	-67.576070	 1.805212	-0.889981	-52.484650	-20.394840	-10.100510	-71.954460	-1.748885	 1.523028	-82.101150	 1.493296	-0.567458	-41.611740	 64.012550	 43.033160	-67.036470	 3.426836	-0.261555	-8.726403	-1.394060	 0.223662	-18.227380
-0.159744	-0.286300	 0.710885	 37.833560	 46.957290	-153.638500	 17.570490	 3.840975	 22.380810	 2.381621	-1.392071	-45.741270	-1.650666	 0.716841	-46.945840	-3.896737	 0.925652	-26.715850	-7.601589	-9.574426	-47.025580	 1.638300	-0.751946	-49.305950	-0.361616	 0.115948	-35.555330	-30.078190	-17.941440	-61.333980	-2.694898	 1.803691	-67.583340	 1.812188	-0.893060	-52.466090	-20.397670	-10.098110	-71.955640	-1.763506	 1.535365	-82.086610	 1.490756	-0.566520	-41.614670	 64.019840	 43.038970	-67.016170	 3.426424	-0.261393	-8.722639	-1.380811	 0.221903	-18.258820
-0.159738	-0.286461	 0.711022	 37.901520	 46.774130	-153.675200	 17.509350	 3.855271	 22.468870	 2.440346	-1.425132	-45.837430	-1.606688	 0.694364	-46.742840	-3.900311	 0.920348	-26.544750	-7.624701	-9.567025	-47.240910	 1.596092	-0.733188	-49.342450	-0.464807	 0.148816	-35.506920	-30.105360	-17.922140	-61.390710	-2.725296	 1.824545	-67.597740	 1.765357	-0.868989	-52.413680	-20.448070	-10.055330	-71.981680	-1.833714	 1.590730	-81.881170	 1.443720	-0.549335	-41.661380	 64.228550	 42.938380	-66.953460	 3.265707	-0.251508	-8.805608	-1.383380	 0.227612	-18.685700
